# xmcd
#
# Track frame offsets:
#	150
#	15122
#	25424
#	34608
#	44861
#	55313
#	64423
#	73392
#	85567
#	97854
#
# Disc length: 1443
#
# Revision: 1
# Processed by: cddbd v1.5.1PL0 Copyright (c) Steve Scherf et al.
# Submitted via: EasyCDDAExtractor 4.6.9.1
# Normalized: r0:TDELIM( - ),TSWAP
#
DISCID=8005a10a
DTITLE=Various Original Artists - Honky Tonk Country
DYEAR=2001
DGENRE=Country
TTITLE0=Jeannie C. Riley - Harper Valley P.T.A.
TTITLE1=Jan Howard - I Wish I Could Fall In Love Again
TTITLE2=Jim Reeves - Billy Bayou
TTITLE3=Bob Wills - Sooner Or Later
TTITLE4=Loretta Lynn - Somebody Somewhere
TTITLE5=Johnny Cash - Big River
TTITLE6=Kitty Wells - I'll Repossess My Heart
TTITLE7=Don Williams - On Her Way To Being a Woman
TTITLE8=Billie Jo Spears - You Never Can Tell
TTITLE9=Willie Nelson - Blame It On The Times
EXTD=
EXTT0=
EXTT1=
EXTT2=
EXTT3=
EXTT4=
EXTT5=
EXTT6=
EXTT7=
EXTT8=
EXTT9=
PLAYORDER=
